<?xml version="1.0" standalone="no"?>
<!DOCTYPE svg PUBLIC "-//W3C//DTD SVG 20010904//EN"
 "http://www.w3.org/TR/2001/REC-SVG-20010904/DTD/svg10.dtd">
<svg version="1.0" xmlns="http://www.w3.org/2000/svg"
 width="125.000000pt" height="125.000000pt" viewBox="0 0 125.000000 125.000000"
 preserveAspectRatio="xMidYMid meet">
<metadata>
Created by potrace 1.11, written by Peter Selinger 2001-2013
</metadata>
<g transform="translate(0.000000,125.000000) scale(0.100000,-0.100000)"
fill="#000000" stroke="none">
<path d="M743 1220 c-2 -3 -8 -5 -11 -6 -16 -2 -49 -19 -66 -35 -15 -14 -18
-31 -17 -81 1 -35 6 -64 11 -66 6 -2 10 -9 10 -15 0 -20 45 -66 76 -78 37 -14
93 -19 100 -7 3 4 10 5 16 2 6 -4 8 -2 4 4 -3 6 2 13 13 17 43 13 71 155 34
169 -8 4 -11 11 -7 18 4 7 4 10 -1 6 -11 -11 -36 12 -28 25 3 5 2 7 -4 4 -5
-4 -19 3 -31 13 -12 11 -26 20 -32 20 -6 0 -9 3 -7 8 6 8 -52 10 -60 2z"/>
<path d="M469 1001 c-25 -7 -103 -64 -130 -93 -14 -15 -29 -25 -33 -20 -4 4
-7 3 -5 -3 1 -5 -2 -30 -7 -55 -4 -25 -7 -48 -6 -52 2 -8 -5 -10 -38 -12 -16
-1 -28 -46 -12 -46 5 0 8 -10 7 -22 -1 -13 -3 -23 -5 -23 -1 0 -4 -13 -6 -30
-3 -16 -7 -39 -9 -50 -2 -11 -4 -24 -4 -28 -1 -5 -7 -5 -13 -1 -7 4 -10 4 -6
0 4 -5 3 -19 -2 -31 -7 -19 -5 -25 10 -30 11 -4 20 -11 20 -16 0 -6 4 -8 8 -5
15 9 52 -23 46 -39 -4 -8 -9 -13 -13 -11 -8 5 -32 -20 -25 -27 2 -2 -2 -10
-11 -17 -8 -7 -15 -19 -15 -26 0 -8 -4 -14 -8 -14 -4 0 -7 -27 -5 -60 2 -49 7
-65 28 -86 14 -14 23 -30 19 -35 -3 -5 0 -8 8 -7 7 2 12 -3 11 -9 -2 -7 2 -13
8 -13 7 0 22 -11 35 -26 13 -14 24 -22 24 -18 0 4 14 -7 31 -24 18 -18 34 -30
37 -27 3 3 12 -1 20 -7 14 -12 32 -15 160 -20 51 -3 76 0 84 9 6 7 14 10 19 7
5 -3 9 -1 9 5 0 5 13 18 30 28 40 23 52 62 62 192 2 27 30 49 54 45 13 -2 24
0 24 6 0 5 9 10 20 10 11 0 20 -4 20 -9 0 -5 8 -8 18 -6 9 1 23 -2 30 -8 6 -5
12 -6 12 -2 0 4 6 2 14 -4 8 -7 24 -14 37 -16 12 -3 25 -8 28 -12 6 -8 51 -17
51 -10 0 8 -37 47 -45 47 -5 0 -24 17 -44 38 -20 21 -40 37 -45 37 -5 0 -11
10 -12 22 -3 17 4 27 26 38 31 16 41 45 15 45 -8 0 -15 4 -15 8 0 4 -9 8 -21
9 -25 2 -61 41 -52 56 3 5 1 7 -4 4 -6 -4 -13 0 -17 8 -3 8 1 18 9 23 13 7 13
10 0 29 -10 15 -23 19 -44 17 -17 -2 -33 1 -36 6 -4 6 -11 8 -16 4 -11 -6 -95
30 -113 49 -15 15 -19 64 -6 72 6 4 8 9 6 13 -2 4 0 29 4 55 4 27 3 50 -2 53
-5 3 -7 13 -4 21 3 8 1 11 -4 8 -9 -6 -14 8 -11 28 1 5 -3 6 -8 3 -5 -4 -11
-3 -13 2 -1 4 -17 17 -34 29 -29 21 -113 35 -145 24z"/>
<path d="M829 802 c-8 -2 -21 -6 -29 -9 -8 -4 -17 -6 -20 -5 -3 0 -7 -9 -7
-20 -1 -12 -6 -24 -11 -27 -4 -3 -3 -16 3 -28 7 -13 15 -20 18 -16 13 12 7
-23 -5 -37 -11 -12 -10 -12 5 -1 15 12 20 11 33 -5 9 -10 13 -14 10 -7 -4 7 6
11 29 12 58 3 64 4 59 13 -3 4 1 11 9 13 19 8 9 65 -14 86 -10 9 -16 18 -13
21 6 7 -48 15 -67 10z"/>
</g>
</svg>
